<svg width="72" height="49" viewBox="0 0 72 49" fill="none" xmlns="http://www.w3.org/2000/svg">
<ellipse rx="12.1011" ry="24.0466" transform="matrix(0.977108 -0.542057 0.561175 0.647396 34.546 26.1129)" fill="#8B8888"/>
<ellipse rx="12.1011" ry="24.0466" transform="matrix(0.977108 -0.542057 0.561175 0.647396 34.546 26.1129)" fill="url(#paint0_linear)"/>
<ellipse rx="12.1011" ry="24.0466" transform="matrix(0.977108 -0.542057 0.561175 0.647396 38.0474 22.1271)" fill="#C0C0C0"/>
<ellipse rx="12.1011" ry="24.0466" transform="matrix(0.977108 -0.542057 0.561175 0.647396 38.0474 22.1271)" fill="url(#paint1_linear)"/>
<path d="M51.2665 37.7017C51.2665 37.7017 44.6477 39.5363 40.5013 38.4741C32.5725 38.5825 21.0945 30.5178 27.9093 31.5076C34.7241 32.4974 25.1588 28.4131 21.2148 20.6944C20.2025 18.3134 19.8493 16.4738 20.1565 14.2311C20.2466 12.8016 20.5824 11.4744 21.164 10.2947C24.5173 8.78558 28.9693 9.34152 33.3309 11.0634C39.4171 13.7999 41.4053 15.8223 43.3406 17.4413C48.1844 22.6303 49.8826 25.3474 51.07 29.8716C51.6766 34.8547 51.4386 35.9121 51.2665 37.7017Z" fill="white"/>
<defs>
<linearGradient id="paint0_linear" x1="12.1011" y1="0" x2="12.1011" y2="48.0931" gradientUnits="userSpaceOnUse">
<stop offset="0.50789" stop-color="#3E3D3D" stop-opacity="0"/>
<stop offset="0.53125" stop-color="#DCDCDC" stop-opacity="0.818083"/>
<stop offset="0.651042" stop-color="white"/>
</linearGradient>
<linearGradient id="paint1_linear" x1="12.1011" y1="0" x2="12.1011" y2="48.0931" gradientUnits="userSpaceOnUse">
<stop offset="0.078125" stop-color="#A89C9C"/>
<stop offset="0.578125" stop-color="white" stop-opacity="0"/>
</linearGradient>
</defs>
</svg>