<svg width="225" height="48" viewBox="0 0 225 48" fill="none" xmlns="http://www.w3.org/2000/svg">
<ellipse rx="7.10161" ry="13.7256" transform="matrix(0.344795 -1.05166 0.858619 -0.0918329 205.896 25.3379)" fill="#8B8888"/>
<ellipse rx="7.10161" ry="13.7256" transform="matrix(0.344795 -1.05166 0.858619 -0.0918329 205.896 25.3379)" fill="url(#paint0_linear)"/>
<ellipse rx="7.10161" ry="13.7256" transform="matrix(0.344795 -1.05166 0.858619 -0.0918329 205.824 22.4826)" fill="#C0C0C0"/>
<ellipse rx="7.10161" ry="13.7256" transform="matrix(0.344795 -1.05166 0.858619 -0.0918329 205.824 22.4826)" fill="url(#paint1_linear)"/>
<path d="M217.495 21.3502C217.495 21.3502 215.408 24.952 213.238 26.5117C209.923 30.1682 201.918 32.8712 205.189 30.0697C208.461 27.2681 202.818 30.3513 198.138 29.7214C196.781 29.4338 195.914 29.0156 195.169 28.1687C194.65 27.6771 194.274 27.1056 194.061 26.4683C194.892 24.4609 196.994 22.602 199.512 21.1519C203.156 19.2335 204.787 18.9623 206.238 18.5882C210.313 18.0101 212.091 18.0903 214.358 18.9731C216.558 20.2659 216.87 20.7078 217.495 21.3502Z" fill="white"/>
<g style="mix-blend-mode:multiply">
<path d="M2.23525 24.0594C1.60165 22.869 1.28485 21.4674 1.28485 19.8546C1.28485 18.357 1.53445 17.0226 2.03365 15.8514C2.55205 14.661 3.10885 13.7106 3.70405 13.0002C4.31845 12.2706 5.05765 11.6946 5.92165 11.2722C6.80485 10.8306 7.73605 10.6098 8.71525 10.6098C10.0976 10.6098 11.2016 11.0034 12.0272 11.7906L15.8 8.62261C15.7232 7.95061 15.6848 7.28821 15.6848 6.63541C15.6848 2.37301 16.808 0.241806 19.0544 0.241806C19.6304 0.241806 20.0816 0.443406 20.408 0.846607C20.7344 1.24981 20.9168 1.76821 20.9552 2.40181C20.9744 3.32341 20.6768 4.24501 20.0624 5.16661C19.4672 6.08821 18.584 7.09621 17.4128 8.19061C18.008 12.165 18.3056 14.8722 18.3056 16.3122C18.3056 17.733 18.1232 19.1154 17.7584 20.4594C17.3936 21.7842 16.8368 22.9938 16.088 24.0882C15.3392 25.1826 14.312 26.037 13.0064 26.6514C11.7008 27.2658 10.184 27.573 8.45605 27.573C5.97925 27.573 4.10725 26.7282 2.84005 25.0386C2.49445 26.2482 2.32165 27.621 2.32165 29.157C2.32165 30.7122 2.72485 32.1042 3.53125 33.333C4.35685 34.581 5.41285 35.205 6.69925 35.205C6.79525 35.205 6.84325 35.301 6.84325 35.493C6.86245 35.685 6.81445 35.781 6.69925 35.781C5.18245 35.781 3.93445 35.061 2.95525 33.621C1.97605 32.2002 1.48645 30.6162 1.48645 28.869C1.48645 27.1218 1.73605 25.5186 2.23525 24.0594ZM12.5168 12.3378C13.0544 13.0674 13.3232 13.893 13.3232 14.8146C13.3232 15.717 13.1792 16.533 12.8912 17.2626C12.6224 17.973 12.1328 18.6066 11.4224 19.1634C10.7312 19.701 9.92485 19.9698 9.00325 19.9698C8.81125 19.9698 8.65765 19.9218 8.54245 19.8258C8.44645 19.7298 8.37925 19.5762 8.34085 19.365C9.16645 19.365 9.92485 18.981 10.616 18.213C11.6144 17.1378 12.1136 15.9282 12.1136 14.5842C12.1136 14.0274 12.008 13.4898 11.7968 12.9714C9.64645 14.8146 7.83205 16.6194 6.35365 18.3858C4.87525 20.1522 3.79045 22.0722 3.09925 24.1458C4.19365 25.9122 5.91205 26.7954 8.25445 26.7954C9.69445 26.7954 10.952 26.4882 12.0272 25.8738C13.1216 25.2786 13.976 24.4626 14.5904 23.4258C15.8 21.3906 16.4048 18.9234 16.4048 16.0242C16.4048 15.3138 16.232 13.1538 15.8864 9.54421L12.5168 12.3378ZM11.3648 12.3666C10.7504 11.7138 9.90565 11.3874 8.83045 11.3874C7.75525 11.3874 6.78565 11.6466 5.92165 12.165C4.32805 13.125 3.18565 14.7378 2.49445 17.0034C2.18725 17.9634 2.03365 18.9522 2.03365 19.9698C2.03365 21.1026 2.21605 22.149 2.58085 23.109C3.90565 19.7874 6.83365 16.2066 11.3648 12.3666ZM17.1536 5.16661C17.1536 5.68501 17.2016 6.37621 17.2976 7.24021C19.1984 5.37781 20.1488 3.80341 20.1488 2.51701C20.1488 1.51861 19.784 1.01941 19.0544 1.01941C17.7872 1.01941 17.1536 2.40181 17.1536 5.16661ZM25.4781 6.46261C25.9197 6.46261 26.1405 6.76021 26.1405 7.35541C26.1405 7.95061 25.8525 8.43061 25.2765 8.79541C24.9885 8.98741 24.7389 9.08341 24.5277 9.08341C24.2205 9.08341 24.0381 8.98741 23.9805 8.79541L23.9517 8.70901C24.1245 8.70901 24.2493 8.52661 24.3261 8.16181C24.4029 7.77781 24.5181 7.40341 24.6717 7.03861C24.8445 6.65461 25.1133 6.46261 25.4781 6.46261ZM23.6349 23.0226C24.1341 23.0226 24.8349 22.3602 25.7373 21.0354C26.6397 19.7106 27.4173 18.3858 28.0701 17.061L29.0493 15.0738H29.8269C29.7117 15.3042 29.5581 15.621 29.3661 16.0242C29.1933 16.4082 28.8381 17.109 28.3005 18.1266C27.7629 19.125 27.2445 20.0082 26.7453 20.7762C26.2653 21.5442 25.7181 22.245 25.1037 22.8786C24.5085 23.493 23.9901 23.8002 23.5485 23.8002C22.1277 23.8002 21.4173 22.8786 21.4173 21.0354C21.4173 19.653 21.8109 17.4066 22.5981 14.2962C22.6749 13.9698 22.7325 13.7202 22.7709 13.5474C22.8285 13.3746 22.8861 13.1538 22.9437 12.885C23.0013 12.597 23.0589 12.3378 23.1165 12.1074C23.2125 11.7042 23.3853 11.5026 23.6349 11.5026C23.9805 11.5026 24.2301 11.7522 24.3837 12.2514C24.4605 12.4818 24.4989 12.7602 24.4989 13.0866C24.4989 13.413 24.4605 13.7586 24.3837 14.1234C24.3069 14.469 24.1821 14.9874 24.0093 15.6786C23.8365 16.3698 23.7021 16.9362 23.6061 17.3778C23.5101 17.8194 23.4045 18.357 23.2893 18.9906C23.0781 20.0466 22.9725 20.9874 22.9725 21.813C22.9725 22.6194 23.1933 23.0226 23.6349 23.0226ZM35.3131 5.65621C36.0043 3.85141 36.3499 2.62261 36.3499 1.96981C36.3499 1.31701 36.1867 0.971407 35.8603 0.933007C34.9579 0.933007 34.0171 2.38261 33.0379 5.28181C32.0779 8.16181 31.3195 11.157 30.7627 14.2674C30.2251 17.3586 29.9563 19.5474 29.9563 20.8338C29.9563 23.0034 30.4939 24.0882 31.5691 24.0882C31.5691 24.2226 31.4827 24.357 31.3099 24.4914C31.1371 24.6258 30.9355 24.693 30.7051 24.693C29.1307 24.693 28.3435 23.2818 28.3435 20.4594C28.3435 19.4226 28.5355 17.8386 28.9195 15.7074C29.3035 13.557 29.8027 11.3106 30.4171 8.96821C31.0315 6.62581 31.8283 4.59061 32.8075 2.86261C33.7867 1.11541 34.7851 0.241806 35.8027 0.241806C36.6091 0.241806 37.0123 0.750606 37.0123 1.76821C37.0123 2.53621 36.7723 3.61141 36.2923 4.99381C35.3707 7.68181 34.0459 10.3698 32.3179 13.0578C31.8571 13.7682 31.4443 14.3442 31.0795 14.7858C30.9835 14.901 30.9355 14.8626 30.9355 14.6706C30.9163 14.3058 31.0027 13.989 31.1947 13.7202C32.7691 11.3586 34.1419 8.67061 35.3131 5.65621ZM41.7302 10.9554C42.5558 10.9554 42.9686 11.7522 42.9686 13.3458C42.9686 13.6338 42.9494 13.9314 42.911 14.2386C43.2374 14.3346 43.6118 14.3826 44.0342 14.3826C44.4566 14.3826 44.8406 14.2002 45.1862 13.8354C45.5318 13.4706 45.7046 13.1346 45.7046 12.8274C45.7046 12.7506 45.7526 12.7026 45.8486 12.6834C45.9446 12.645 46.031 12.645 46.1078 12.6834C46.2038 12.7218 46.2518 12.7794 46.2518 12.8562C46.2518 13.413 46.0118 13.941 45.5318 14.4402C45.071 14.9394 44.447 15.189 43.6598 15.189C43.3526 15.189 43.0742 15.1602 42.8246 15.1026C42.3254 18.1746 41.327 20.5842 39.8294 22.3314C39.0422 23.253 38.2742 23.7138 37.5254 23.7138C36.143 23.7138 35.2982 23.253 34.991 22.3314C34.8182 21.8322 34.7318 21.3042 34.7318 20.7474C34.7318 20.1906 34.8086 19.5282 34.9622 18.7602C35.2118 17.5122 35.7302 15.5058 36.5174 12.741C36.6326 12.3378 36.815 12.1362 37.0646 12.1362C37.4102 12.1362 37.6598 12.3858 37.8134 12.885C37.8902 13.0962 37.9286 13.365 37.9286 13.6914C37.9286 13.9986 37.871 14.373 37.7558 14.8146C37.0262 17.5602 36.6134 19.221 36.5174 19.797C36.4214 20.3538 36.3734 20.8338 36.3734 21.237C36.3734 22.3698 36.7286 22.9362 37.439 22.9362C38.4758 22.9362 39.4358 22.0722 40.319 20.3442C41.2214 18.6162 41.8358 16.7826 42.1622 14.8434C41.5862 14.5362 41.2022 14.133 41.0102 13.6338C40.8374 13.1154 40.751 12.7218 40.751 12.453C40.751 12.165 40.7894 11.9154 40.8662 11.7042C41.0198 11.205 41.3078 10.9554 41.7302 10.9554ZM46.9876 19.509C46.9876 21.8322 47.8132 22.9938 49.4644 22.9938C50.0788 22.9938 50.722 22.725 51.394 22.1874C52.0852 21.6306 52.7092 20.9682 53.266 20.2002C54.4948 18.4338 55.3588 16.9938 55.858 15.8802L56.2324 15.0738H57.01C56.6836 15.8418 56.2036 16.7922 55.57 17.925C54.9364 19.0386 54.3316 19.9794 53.7556 20.7474C53.1796 21.5154 52.498 22.2162 51.7108 22.8498C50.9236 23.4642 50.1748 23.7714 49.4644 23.7714C46.6228 23.7714 45.202 22.1778 45.202 18.9906C45.202 17.5122 45.634 16.0338 46.498 14.5554C47.6884 12.501 49.1572 11.4738 50.9044 11.4738C52.1332 11.4738 52.7476 12.1458 52.7476 13.4898C52.7476 14.4882 52.3636 15.525 51.5956 16.6002C50.5204 18.0594 49.2628 18.7986 47.8228 18.8178C47.6116 18.8178 47.4772 18.7218 47.4196 18.5298L47.3908 18.4146C48.3892 18.4146 49.3396 17.7618 50.242 16.4562C51.1636 15.1314 51.6244 14.0274 51.6244 13.1442C51.6244 12.549 51.394 12.2514 50.9332 12.2514C49.9156 12.2514 48.9652 13.1442 48.082 14.9298C47.3524 16.4466 46.9876 17.973 46.9876 19.509ZM55.8136 23.7138C55.276 23.7138 55.0072 23.301 55.0072 22.4754C55.0072 22.0338 55.5448 18.8178 56.62 12.8274C56.6968 12.4242 56.8696 12.2226 57.1384 12.2226C57.484 12.2226 57.7432 12.4722 57.916 12.9714C58.012 13.2402 58.06 13.5378 58.06 13.8642C58.06 14.1714 58.0216 14.5074 57.9448 14.8722L57.484 17.2338H57.628C59.2792 13.3938 60.796 11.4738 62.1784 11.4738C62.9464 11.4738 63.4552 11.8482 63.7048 12.597C63.8008 12.885 63.8488 13.221 63.8488 13.605C63.8488 13.9698 63.7432 14.373 63.532 14.8146C63.1672 15.5634 62.62 15.9378 61.8904 15.9378C61.7368 15.9378 61.612 15.8994 61.516 15.8226C61.4392 15.7458 61.3912 15.6402 61.372 15.5058C61.5256 15.5058 61.7272 15.2274 61.9768 14.6706C62.2264 14.0946 62.3704 13.5666 62.4088 13.0866C62.4472 12.6066 62.284 12.3282 61.9192 12.2514C61.2472 12.2514 60.4504 13.125 59.5288 14.8722C58.6072 16.6194 57.868 18.2898 57.3112 19.8834C56.7544 21.477 56.428 22.5138 56.332 22.9938C56.236 23.4738 56.0632 23.7138 55.8136 23.7138ZM71.8052 5.65621C72.4964 3.85141 72.842 2.62261 72.842 1.96981C72.842 1.31701 72.6788 0.971407 72.3524 0.933007C71.45 0.933007 70.5092 2.38261 69.53 5.28181C68.57 8.16181 67.8116 11.157 67.2548 14.2674C66.7172 17.3586 66.4484 19.5474 66.4484 20.8338C66.4484 23.0034 66.986 24.0882 68.0612 24.0882C68.0612 24.2226 67.9748 24.357 67.802 24.4914C67.6292 24.6258 67.4276 24.693 67.1972 24.693C65.6228 24.693 64.8356 23.2818 64.8356 20.4594C64.8356 19.4226 65.0276 17.8386 65.4116 15.7074C65.7956 13.557 66.2948 11.3106 66.9092 8.96821C67.5236 6.62581 68.3204 4.59061 69.2996 2.86261C70.2788 1.11541 71.2772 0.241806 72.2948 0.241806C73.1012 0.241806 73.5044 0.750606 73.5044 1.76821C73.5044 2.53621 73.2644 3.61141 72.7844 4.99381C71.8628 7.68181 70.538 10.3698 68.81 13.0578C68.3492 13.7682 67.9364 14.3442 67.5716 14.7858C67.4756 14.901 67.4276 14.8626 67.4276 14.6706C67.4084 14.3058 67.4948 13.989 67.6868 13.7202C69.2612 11.3586 70.634 8.67061 71.8052 5.65621ZM75.4 6.46261C75.8416 6.46261 76.0624 6.76021 76.0624 7.35541C76.0624 7.95061 75.7744 8.43061 75.1984 8.79541C74.9104 8.98741 74.6608 9.08341 74.4496 9.08341C74.1424 9.08341 73.96 8.98741 73.9024 8.79541L73.8736 8.70901C74.0464 8.70901 74.1712 8.52661 74.248 8.16181C74.3248 7.77781 74.44 7.40341 74.5936 7.03861C74.7664 6.65461 75.0352 6.46261 75.4 6.46261ZM73.5568 23.0226C74.056 23.0226 74.7568 22.3602 75.6592 21.0354C76.5616 19.7106 77.3392 18.3858 77.992 17.061L78.9712 15.0738H79.7488C79.6336 15.3042 79.48 15.621 79.288 16.0242C79.1152 16.4082 78.76 17.109 78.2224 18.1266C77.6848 19.125 77.1664 20.0082 76.6672 20.7762C76.1872 21.5442 75.64 22.245 75.0256 22.8786C74.4304 23.493 73.912 23.8002 73.4704 23.8002C72.0496 23.8002 71.3392 22.8786 71.3392 21.0354C71.3392 19.653 71.7328 17.4066 72.52 14.2962C72.5968 13.9698 72.6544 13.7202 72.6928 13.5474C72.7504 13.3746 72.808 13.1538 72.8656 12.885C72.9232 12.597 72.9808 12.3378 73.0384 12.1074C73.1344 11.7042 73.3072 11.5026 73.5568 11.5026C73.9024 11.5026 74.152 11.7522 74.3056 12.2514C74.3824 12.4818 74.4208 12.7602 74.4208 13.0866C74.4208 13.413 74.3824 13.7586 74.3056 14.1234C74.2288 14.469 74.104 14.9874 73.9312 15.6786C73.7584 16.3698 73.624 16.9362 73.528 17.3778C73.432 17.8194 73.3264 18.357 73.2112 18.9906C73 20.0466 72.8944 20.9874 72.8944 21.813C72.8944 22.6194 73.1152 23.0226 73.5568 23.0226ZM78.4957 23.7138C77.9581 23.7138 77.6893 23.301 77.6893 22.4754C77.6893 22.0338 78.2269 18.8178 79.3021 12.8274C79.3597 12.4242 79.5325 12.2226 79.8205 12.2226C80.1661 12.2226 80.4253 12.4722 80.5981 12.9714C80.6941 13.2402 80.7421 13.5378 80.7421 13.8642C80.7421 14.1714 80.7037 14.5074 80.6269 14.8722L80.1661 17.1762H80.3389C82.0669 13.2978 83.7181 11.3586 85.2925 11.3586C85.9069 11.3586 86.3773 11.5506 86.7037 11.9346C87.0301 12.2994 87.1933 12.8082 87.1933 13.461C87.1933 14.1138 86.9341 15.525 86.4157 17.6946C85.8973 19.8642 85.6381 21.3714 85.6381 22.2162C85.6381 23.4642 85.8685 24.0882 86.3293 24.0882C86.3293 24.2226 86.2429 24.357 86.0701 24.4914C85.8973 24.6258 85.6957 24.693 85.4653 24.693C84.3517 24.693 83.7949 23.8194 83.7949 22.0722C83.7949 20.997 84.0829 19.3746 84.6589 17.205C85.2541 15.0162 85.5517 13.6242 85.5517 13.029C85.5517 12.4146 85.3117 12.1074 84.8317 12.1074C84.1405 12.1074 83.3053 13.0098 82.3261 14.8146C81.3661 16.6194 80.5885 18.3474 79.9933 19.9986C79.4173 21.6306 79.0813 22.6578 78.9853 23.0802C78.9085 23.5026 78.7453 23.7138 78.4957 23.7138ZM91.3548 19.509C91.3548 21.8322 92.1804 22.9938 93.8316 22.9938C94.446 22.9938 95.0892 22.725 95.7612 22.1874C96.4524 21.6306 97.0764 20.9682 97.6332 20.2002C98.862 18.4338 99.726 16.9938 100.225 15.8802L100.6 15.0738H101.377C101.051 15.8418 100.571 16.7922 99.9372 17.925C99.3036 19.0386 98.6988 19.9794 98.1228 20.7474C97.5468 21.5154 96.8652 22.2162 96.078 22.8498C95.2908 23.4642 94.542 23.7714 93.8316 23.7714C90.99 23.7714 89.5692 22.1778 89.5692 18.9906C89.5692 17.5122 90.0012 16.0338 90.8652 14.5554C92.0556 12.501 93.5244 11.4738 95.2716 11.4738C96.5004 11.4738 97.1148 12.1458 97.1148 13.4898C97.1148 14.4882 96.7308 15.525 95.9628 16.6002C94.8876 18.0594 93.63 18.7986 92.19 18.8178C91.9788 18.8178 91.8444 18.7218 91.7868 18.5298L91.758 18.4146C92.7564 18.4146 93.7068 17.7618 94.6092 16.4562C95.5308 15.1314 95.9916 14.0274 95.9916 13.1442C95.9916 12.549 95.7612 12.2514 95.3004 12.2514C94.2828 12.2514 93.3324 13.1442 92.4492 14.9298C91.7196 16.4466 91.3548 17.973 91.3548 19.509ZM132.676 0.645006C132.791 0.299406 133.012 0.126606 133.338 0.126606C133.684 0.126606 133.962 0.270606 134.173 0.558607C134.404 0.827407 134.519 1.18261 134.519 1.62421C134.519 2.06581 134.394 2.48821 134.144 2.89141C133.914 3.27541 133.626 3.60181 133.28 3.87061C132.954 4.13941 132.493 4.39861 131.898 4.64821C131.072 5.01301 129.844 5.42581 128.212 5.88661C127.751 7.57621 127.405 9.62101 127.175 12.021C126.964 14.4018 126.743 16.389 126.512 17.9826C126.282 19.5762 126.023 21.0642 125.735 22.4466C125.447 23.8098 125.024 25.1442 124.468 26.4498C123.911 27.7746 123.258 28.8978 122.509 29.8194C121.76 30.741 120.791 31.4802 119.6 32.037C118.429 32.5938 117.085 32.8722 115.568 32.8722C112.554 32.8722 110.404 31.8066 109.117 29.6754C108.445 28.5618 108.109 27.3426 108.109 26.0178C108.109 25.3842 108.186 24.7314 108.34 24.0594C108.8 22.101 109.76 20.6706 111.22 19.7682C112.084 19.2306 113.024 18.9618 114.042 18.9618C116.116 18.9618 117.536 19.7778 118.304 21.4098C118.612 22.101 118.765 22.7826 118.765 23.4546C118.765 24.1074 118.66 24.7506 118.448 25.3842C117.93 26.805 117.085 27.5154 115.914 27.5154C115.588 27.5154 115.319 27.333 115.108 26.9682C115.895 26.9682 116.519 26.4114 116.98 25.2978C117.268 24.6066 117.412 23.9538 117.412 23.3394C117.412 22.725 117.325 22.1586 117.152 21.6402C116.653 20.2194 115.626 19.509 114.071 19.509C112.247 19.509 110.816 20.3538 109.78 22.0434C109.069 23.2146 108.714 24.4626 108.714 25.7874C108.714 26.2482 108.762 26.709 108.858 27.1698C109.204 29.205 110.231 30.6354 111.94 31.461C112.842 31.9026 113.984 32.1234 115.367 32.1234C116.749 32.1234 118.026 31.6722 119.197 30.7698C120.368 29.8674 121.271 28.725 121.904 27.3426C122.557 25.9794 123.124 24.3282 123.604 22.389C124.103 20.4306 124.468 18.5682 124.698 16.8018C125.37 11.9826 126.032 8.48821 126.685 6.31861C123.172 7.33621 120.781 8.46901 119.514 9.71701C118.996 10.2546 118.554 10.9362 118.189 11.7618C117.824 12.5682 117.642 13.4706 117.642 14.469C117.642 15.4674 117.892 16.3122 118.391 17.0034C118.89 17.6946 119.524 18.0402 120.292 18.0402C120.292 18.1938 120.215 18.3378 120.061 18.4722C119.908 18.6066 119.716 18.6738 119.485 18.6738C118.544 18.6738 117.767 18.2706 117.152 17.4642C116.557 16.6578 116.26 15.765 116.26 14.7858C116.26 13.7874 116.375 12.9426 116.605 12.2514C116.855 11.5602 117.152 10.965 117.498 10.4658C117.863 9.94741 118.343 9.45781 118.938 8.99701C119.552 8.53621 120.128 8.15221 120.666 7.84501C121.204 7.53781 121.885 7.22101 122.711 6.89461C123.94 6.43381 125.351 5.97301 126.944 5.51221C127.847 2.99701 129.143 1.73941 130.832 1.73941C130.967 1.73941 131.082 1.78741 131.178 1.88341C131.293 1.96021 131.38 2.07541 131.437 2.22901C130.112 2.22901 129.124 3.16981 128.471 5.05141C130.16 4.55221 131.428 4.06261 132.272 3.58261C133.136 3.10261 133.568 2.48821 133.568 1.73941C133.568 1.41301 133.482 1.15381 133.309 0.961807C133.136 0.750607 132.925 0.645006 132.676 0.645006ZM132.312 19.509C132.312 21.8322 133.137 22.9938 134.789 22.9938C135.403 22.9938 136.046 22.725 136.718 22.1874C137.409 21.6306 138.033 20.9682 138.59 20.2002C139.819 18.4338 140.683 16.9938 141.182 15.8802L141.557 15.0738H142.334C142.008 15.8418 141.528 16.7922 140.894 17.925C140.261 19.0386 139.656 19.9794 139.08 20.7474C138.504 21.5154 137.822 22.2162 137.035 22.8498C136.248 23.4642 135.499 23.7714 134.789 23.7714C131.947 23.7714 130.526 22.1778 130.526 18.9906C130.526 17.5122 130.958 16.0338 131.822 14.5554C133.013 12.501 134.481 11.4738 136.229 11.4738C137.457 11.4738 138.072 12.1458 138.072 13.4898C138.072 14.4882 137.688 15.525 136.92 16.6002C135.845 18.0594 134.587 18.7986 133.147 18.8178C132.936 18.8178 132.801 18.7218 132.744 18.5298L132.715 18.4146C133.713 18.4146 134.664 17.7618 135.566 16.4562C136.488 15.1314 136.949 14.0274 136.949 13.1442C136.949 12.549 136.718 12.2514 136.257 12.2514C135.24 12.2514 134.289 13.1442 133.406 14.9298C132.677 16.4466 132.312 17.973 132.312 19.509ZM149.519 22.9362C150.229 22.9362 150.911 22.485 151.563 21.5826C152.735 19.9314 153.522 17.7042 153.925 14.901C153.311 14.5938 152.898 14.181 152.687 13.6626C152.495 13.1442 152.399 12.741 152.399 12.453C152.399 11.4546 152.725 10.9554 153.378 10.9554C154.184 10.9554 154.587 11.8482 154.587 13.6338C154.587 13.8258 154.587 14.0274 154.587 14.2386C154.875 14.3346 155.231 14.3826 155.653 14.3826C156.095 14.3826 156.488 14.2002 156.834 13.8354C157.179 13.4706 157.352 13.1346 157.352 12.8274C157.352 12.7506 157.391 12.7026 157.467 12.6834C157.563 12.645 157.659 12.645 157.755 12.6834C157.851 12.7218 157.899 12.7794 157.899 12.8562C157.899 13.413 157.659 13.941 157.179 14.4402C156.719 14.9394 156.095 15.189 155.307 15.189C155.019 15.189 154.76 15.1602 154.53 15.1026C154.184 18.1362 153.291 20.5458 151.851 22.3314C151.103 23.253 150.306 23.7138 149.461 23.7138C148.117 23.7138 147.215 23.0034 146.754 21.5826C145.621 23.0034 144.536 23.7138 143.499 23.7138C142.04 23.7138 141.138 23.2146 140.792 22.2162C140.6 21.6786 140.504 21.1026 140.504 20.4882C140.504 19.8738 140.571 19.1922 140.706 18.4434C140.994 17.0226 141.551 14.901 142.376 12.0786C142.491 11.6754 142.674 11.4738 142.923 11.4738C143.269 11.4738 143.519 11.7138 143.672 12.1938C143.749 12.4242 143.787 12.7026 143.787 13.029C143.787 13.3362 143.739 13.6626 143.643 14.0082C143.547 14.3538 143.432 14.7762 143.298 15.2754C143.163 15.7746 143.048 16.197 142.952 16.5426C142.856 16.8882 142.741 17.3106 142.607 17.8098C142.491 18.309 142.395 18.741 142.319 19.1058C142.261 19.4706 142.203 19.8642 142.146 20.2866C142.107 20.709 142.107 21.0738 142.146 21.381C142.184 21.669 142.251 21.9378 142.347 22.1874C142.539 22.6866 142.943 22.9362 143.557 22.9362C144.479 22.9362 145.467 22.1778 146.523 20.661C146.447 20.2002 146.408 19.7298 146.408 19.2498C146.408 17.9634 146.648 16.5906 147.128 15.1314C147.8 13.1346 148.482 12.1362 149.173 12.1362C149.73 12.1362 150.008 12.5682 150.008 13.4322C150.008 13.7778 149.96 14.181 149.864 14.6418C149.576 16.2738 148.943 17.9634 147.963 19.7106C148.136 21.861 148.655 22.9362 149.519 22.9362ZM147.935 18.2418C148.338 17.4162 148.674 16.6002 148.943 15.7938C149.211 14.9874 149.355 14.4498 149.375 14.181C149.413 13.893 149.432 13.653 149.432 13.461C149.432 13.269 149.355 13.1538 149.202 13.1154C148.875 13.1154 148.587 13.653 148.338 14.7282C148.088 15.7842 147.954 16.9554 147.935 18.2418ZM158.784 19.509C158.784 21.8322 159.61 22.9938 161.261 22.9938C161.876 22.9938 162.519 22.725 163.191 22.1874C163.882 21.6306 164.506 20.9682 165.063 20.2002C166.292 18.4338 167.156 16.9938 167.655 15.8802L168.029 15.0738H168.807C168.48 15.8418 168 16.7922 167.367 17.925C166.733 19.0386 166.128 19.9794 165.552 20.7474C164.976 21.5154 164.295 22.2162 163.508 22.8498C162.72 23.4642 161.972 23.7714 161.261 23.7714C158.42 23.7714 156.999 22.1778 156.999 18.9906C156.999 17.5122 157.431 16.0338 158.295 14.5554C159.485 12.501 160.954 11.4738 162.701 11.4738C163.93 11.4738 164.544 12.1458 164.544 13.4898C164.544 14.4882 164.16 15.525 163.392 16.6002C162.317 18.0594 161.06 18.7986 159.62 18.8178C159.408 18.8178 159.274 18.7218 159.216 18.5298L159.188 18.4146C160.186 18.4146 161.136 17.7618 162.039 16.4562C162.96 15.1314 163.421 14.0274 163.421 13.1442C163.421 12.549 163.191 12.2514 162.73 12.2514C161.712 12.2514 160.762 13.1442 159.879 14.9298C159.149 16.4466 158.784 17.973 158.784 19.509ZM174.321 5.65621C175.012 3.85141 175.358 2.62261 175.358 1.96981C175.358 1.31701 175.194 0.971407 174.868 0.933007C173.966 0.933007 173.025 2.38261 172.046 5.28181C171.086 8.16181 170.327 11.157 169.77 14.2674C169.233 17.3586 168.964 19.5474 168.964 20.8338C168.964 23.0034 169.502 24.0882 170.577 24.0882C170.577 24.2226 170.49 24.357 170.318 24.4914C170.145 24.6258 169.943 24.693 169.713 24.693C168.138 24.693 167.351 23.2818 167.351 20.4594C167.351 19.4226 167.543 17.8386 167.927 15.7074C168.311 13.557 168.81 11.3106 169.425 8.96821C170.039 6.62581 170.836 4.59061 171.815 2.86261C172.794 1.11541 173.793 0.241806 174.81 0.241806C175.617 0.241806 176.02 0.750606 176.02 1.76821C176.02 2.53621 175.78 3.61141 175.3 4.99381C174.378 7.68181 173.054 10.3698 171.326 13.0578C170.865 13.7682 170.452 14.3442 170.087 14.7858C169.991 14.901 169.943 14.8626 169.943 14.6706C169.924 14.3058 170.01 13.989 170.202 13.7202C171.777 11.3586 173.15 8.67061 174.321 5.65621ZM174.431 23.7138C173.893 23.7138 173.624 23.301 173.624 22.4754C173.624 22.0338 174.162 18.8178 175.237 12.8274C175.314 12.4242 175.487 12.2226 175.756 12.2226C176.101 12.2226 176.36 12.4722 176.533 12.9714C176.629 13.2402 176.677 13.5378 176.677 13.8642C176.677 14.1714 176.639 14.5074 176.562 14.8722L176.101 17.2338H176.245C177.896 13.3938 179.413 11.4738 180.796 11.4738C181.564 11.4738 182.072 11.8482 182.322 12.597C182.418 12.885 182.466 13.221 182.466 13.605C182.466 13.9698 182.36 14.373 182.149 14.8146C181.784 15.5634 181.237 15.9378 180.508 15.9378C180.354 15.9378 180.229 15.8994 180.133 15.8226C180.056 15.7458 180.008 15.6402 179.989 15.5058C180.143 15.5058 180.344 15.2274 180.594 14.6706C180.844 14.0946 180.988 13.5666 181.026 13.0866C181.064 12.6066 180.901 12.3282 180.536 12.2514C179.864 12.2514 179.068 13.125 178.146 14.8722C177.224 16.6194 176.485 18.2898 175.928 19.8834C175.372 21.477 175.045 22.5138 174.949 22.9938C174.853 23.4738 174.68 23.7138 174.431 23.7138ZM182.502 35.205C180.678 35.205 179.766 34.2738 179.766 32.4114C179.766 31.317 180.179 30.1362 181.005 28.869C182.195 27.0066 183.789 25.7778 185.786 25.1826C186.496 24.9714 187.235 24.8658 188.003 24.8658C188.138 24.8658 188.205 25.0002 188.205 25.269C188.205 25.5378 188.138 25.6722 188.003 25.6722C185.738 25.6722 183.837 26.565 182.301 28.3506C181.168 29.6946 180.602 30.9906 180.602 32.2386C180.602 33.4866 181.082 34.2066 182.042 34.3986L182.502 34.4274C184.096 34.4274 185.373 33.7554 186.333 32.4114C187.005 31.4514 187.504 30.4722 187.83 29.4738C188.176 28.4946 188.426 27.7074 188.579 27.1122C188.752 26.517 188.944 25.7298 189.155 24.7506C189.366 23.7906 189.53 22.9746 189.645 22.3026C189.779 21.6306 189.962 20.6706 190.192 19.4226C190.442 18.1554 190.634 17.157 190.768 16.4274H190.595C188.272 21.285 186.362 23.7138 184.864 23.7138C183.578 23.7138 182.934 22.8786 182.934 21.2082C182.934 19.9986 183.453 17.589 184.49 13.9794C184.72 13.1538 184.893 12.5394 185.008 12.1362C185.123 11.7138 185.306 11.5026 185.555 11.5026C185.901 11.5026 186.15 11.7522 186.304 12.2514C186.381 12.4626 186.419 12.7314 186.419 13.0578C186.419 13.365 186.371 13.7106 186.275 14.0946C186.179 14.4594 185.978 15.1698 185.67 16.2258C184.845 19.0674 184.432 20.9778 184.432 21.957C184.432 22.5906 184.624 22.9074 185.008 22.9074C185.469 22.9074 186.035 22.4754 186.707 21.6114C187.398 20.7474 188.07 19.6914 188.723 18.4434C189.914 16.1778 190.883 14.0658 191.632 12.1074C191.786 11.7042 191.978 11.5026 192.208 11.5026C192.534 11.5026 192.774 11.7522 192.928 12.2514C193.005 12.5202 193.043 12.8178 193.043 13.1442C193.043 13.4706 192.88 14.4114 192.554 15.9666C192.246 17.5218 191.93 19.0098 191.603 20.4306C191.296 21.8514 190.883 23.5218 190.365 25.4418C189.866 27.3618 189.386 28.7922 188.925 29.733C188.483 30.6738 187.936 31.6338 187.283 32.613C186.65 33.5922 185.939 34.2642 185.152 34.629C184.365 35.013 183.482 35.205 182.502 35.205Z" fill="#8B8888"/>
<path d="M2.23525 24.0594C1.60165 22.869 1.28485 21.4674 1.28485 19.8546C1.28485 18.357 1.53445 17.0226 2.03365 15.8514C2.55205 14.661 3.10885 13.7106 3.70405 13.0002C4.31845 12.2706 5.05765 11.6946 5.92165 11.2722C6.80485 10.8306 7.73605 10.6098 8.71525 10.6098C10.0976 10.6098 11.2016 11.0034 12.0272 11.7906L15.8 8.62261C15.7232 7.95061 15.6848 7.28821 15.6848 6.63541C15.6848 2.37301 16.808 0.241806 19.0544 0.241806C19.6304 0.241806 20.0816 0.443406 20.408 0.846607C20.7344 1.24981 20.9168 1.76821 20.9552 2.40181C20.9744 3.32341 20.6768 4.24501 20.0624 5.16661C19.4672 6.08821 18.584 7.09621 17.4128 8.19061C18.008 12.165 18.3056 14.8722 18.3056 16.3122C18.3056 17.733 18.1232 19.1154 17.7584 20.4594C17.3936 21.7842 16.8368 22.9938 16.088 24.0882C15.3392 25.1826 14.312 26.037 13.0064 26.6514C11.7008 27.2658 10.184 27.573 8.45605 27.573C5.97925 27.573 4.10725 26.7282 2.84005 25.0386C2.49445 26.2482 2.32165 27.621 2.32165 29.157C2.32165 30.7122 2.72485 32.1042 3.53125 33.333C4.35685 34.581 5.41285 35.205 6.69925 35.205C6.79525 35.205 6.84325 35.301 6.84325 35.493C6.86245 35.685 6.81445 35.781 6.69925 35.781C5.18245 35.781 3.93445 35.061 2.95525 33.621C1.97605 32.2002 1.48645 30.6162 1.48645 28.869C1.48645 27.1218 1.73605 25.5186 2.23525 24.0594ZM12.5168 12.3378C13.0544 13.0674 13.3232 13.893 13.3232 14.8146C13.3232 15.717 13.1792 16.533 12.8912 17.2626C12.6224 17.973 12.1328 18.6066 11.4224 19.1634C10.7312 19.701 9.92485 19.9698 9.00325 19.9698C8.81125 19.9698 8.65765 19.9218 8.54245 19.8258C8.44645 19.7298 8.37925 19.5762 8.34085 19.365C9.16645 19.365 9.92485 18.981 10.616 18.213C11.6144 17.1378 12.1136 15.9282 12.1136 14.5842C12.1136 14.0274 12.008 13.4898 11.7968 12.9714C9.64645 14.8146 7.83205 16.6194 6.35365 18.3858C4.87525 20.1522 3.79045 22.0722 3.09925 24.1458C4.19365 25.9122 5.91205 26.7954 8.25445 26.7954C9.69445 26.7954 10.952 26.4882 12.0272 25.8738C13.1216 25.2786 13.976 24.4626 14.5904 23.4258C15.8 21.3906 16.4048 18.9234 16.4048 16.0242C16.4048 15.3138 16.232 13.1538 15.8864 9.54421L12.5168 12.3378ZM11.3648 12.3666C10.7504 11.7138 9.90565 11.3874 8.83045 11.3874C7.75525 11.3874 6.78565 11.6466 5.92165 12.165C4.32805 13.125 3.18565 14.7378 2.49445 17.0034C2.18725 17.9634 2.03365 18.9522 2.03365 19.9698C2.03365 21.1026 2.21605 22.149 2.58085 23.109C3.90565 19.7874 6.83365 16.2066 11.3648 12.3666ZM17.1536 5.16661C17.1536 5.68501 17.2016 6.37621 17.2976 7.24021C19.1984 5.37781 20.1488 3.80341 20.1488 2.51701C20.1488 1.51861 19.784 1.01941 19.0544 1.01941C17.7872 1.01941 17.1536 2.40181 17.1536 5.16661ZM25.4781 6.46261C25.9197 6.46261 26.1405 6.76021 26.1405 7.35541C26.1405 7.95061 25.8525 8.43061 25.2765 8.79541C24.9885 8.98741 24.7389 9.08341 24.5277 9.08341C24.2205 9.08341 24.0381 8.98741 23.9805 8.79541L23.9517 8.70901C24.1245 8.70901 24.2493 8.52661 24.3261 8.16181C24.4029 7.77781 24.5181 7.40341 24.6717 7.03861C24.8445 6.65461 25.1133 6.46261 25.4781 6.46261ZM23.6349 23.0226C24.1341 23.0226 24.8349 22.3602 25.7373 21.0354C26.6397 19.7106 27.4173 18.3858 28.0701 17.061L29.0493 15.0738H29.8269C29.7117 15.3042 29.5581 15.621 29.3661 16.0242C29.1933 16.4082 28.8381 17.109 28.3005 18.1266C27.7629 19.125 27.2445 20.0082 26.7453 20.7762C26.2653 21.5442 25.7181 22.245 25.1037 22.8786C24.5085 23.493 23.9901 23.8002 23.5485 23.8002C22.1277 23.8002 21.4173 22.8786 21.4173 21.0354C21.4173 19.653 21.8109 17.4066 22.5981 14.2962C22.6749 13.9698 22.7325 13.7202 22.7709 13.5474C22.8285 13.3746 22.8861 13.1538 22.9437 12.885C23.0013 12.597 23.0589 12.3378 23.1165 12.1074C23.2125 11.7042 23.3853 11.5026 23.6349 11.5026C23.9805 11.5026 24.2301 11.7522 24.3837 12.2514C24.4605 12.4818 24.4989 12.7602 24.4989 13.0866C24.4989 13.413 24.4605 13.7586 24.3837 14.1234C24.3069 14.469 24.1821 14.9874 24.0093 15.6786C23.8365 16.3698 23.7021 16.9362 23.6061 17.3778C23.5101 17.8194 23.4045 18.357 23.2893 18.9906C23.0781 20.0466 22.9725 20.9874 22.9725 21.813C22.9725 22.6194 23.1933 23.0226 23.6349 23.0226ZM35.3131 5.65621C36.0043 3.85141 36.3499 2.62261 36.3499 1.96981C36.3499 1.31701 36.1867 0.971407 35.8603 0.933007C34.9579 0.933007 34.0171 2.38261 33.0379 5.28181C32.0779 8.16181 31.3195 11.157 30.7627 14.2674C30.2251 17.3586 29.9563 19.5474 29.9563 20.8338C29.9563 23.0034 30.4939 24.0882 31.5691 24.0882C31.5691 24.2226 31.4827 24.357 31.3099 24.4914C31.1371 24.6258 30.9355 24.693 30.7051 24.693C29.1307 24.693 28.3435 23.2818 28.3435 20.4594C28.3435 19.4226 28.5355 17.8386 28.9195 15.7074C29.3035 13.557 29.8027 11.3106 30.4171 8.96821C31.0315 6.62581 31.8283 4.59061 32.8075 2.86261C33.7867 1.11541 34.7851 0.241806 35.8027 0.241806C36.6091 0.241806 37.0123 0.750606 37.0123 1.76821C37.0123 2.53621 36.7723 3.61141 36.2923 4.99381C35.3707 7.68181 34.0459 10.3698 32.3179 13.0578C31.8571 13.7682 31.4443 14.3442 31.0795 14.7858C30.9835 14.901 30.9355 14.8626 30.9355 14.6706C30.9163 14.3058 31.0027 13.989 31.1947 13.7202C32.7691 11.3586 34.1419 8.67061 35.3131 5.65621ZM41.7302 10.9554C42.5558 10.9554 42.9686 11.7522 42.9686 13.3458C42.9686 13.6338 42.9494 13.9314 42.911 14.2386C43.2374 14.3346 43.6118 14.3826 44.0342 14.3826C44.4566 14.3826 44.8406 14.2002 45.1862 13.8354C45.5318 13.4706 45.7046 13.1346 45.7046 12.8274C45.7046 12.7506 45.7526 12.7026 45.8486 12.6834C45.9446 12.645 46.031 12.645 46.1078 12.6834C46.2038 12.7218 46.2518 12.7794 46.2518 12.8562C46.2518 13.413 46.0118 13.941 45.5318 14.4402C45.071 14.9394 44.447 15.189 43.6598 15.189C43.3526 15.189 43.0742 15.1602 42.8246 15.1026C42.3254 18.1746 41.327 20.5842 39.8294 22.3314C39.0422 23.253 38.2742 23.7138 37.5254 23.7138C36.143 23.7138 35.2982 23.253 34.991 22.3314C34.8182 21.8322 34.7318 21.3042 34.7318 20.7474C34.7318 20.1906 34.8086 19.5282 34.9622 18.7602C35.2118 17.5122 35.7302 15.5058 36.5174 12.741C36.6326 12.3378 36.815 12.1362 37.0646 12.1362C37.4102 12.1362 37.6598 12.3858 37.8134 12.885C37.8902 13.0962 37.9286 13.365 37.9286 13.6914C37.9286 13.9986 37.871 14.373 37.7558 14.8146C37.0262 17.5602 36.6134 19.221 36.5174 19.797C36.4214 20.3538 36.3734 20.8338 36.3734 21.237C36.3734 22.3698 36.7286 22.9362 37.439 22.9362C38.4758 22.9362 39.4358 22.0722 40.319 20.3442C41.2214 18.6162 41.8358 16.7826 42.1622 14.8434C41.5862 14.5362 41.2022 14.133 41.0102 13.6338C40.8374 13.1154 40.751 12.7218 40.751 12.453C40.751 12.165 40.7894 11.9154 40.8662 11.7042C41.0198 11.205 41.3078 10.9554 41.7302 10.9554ZM46.9876 19.509C46.9876 21.8322 47.8132 22.9938 49.4644 22.9938C50.0788 22.9938 50.722 22.725 51.394 22.1874C52.0852 21.6306 52.7092 20.9682 53.266 20.2002C54.4948 18.4338 55.3588 16.9938 55.858 15.8802L56.2324 15.0738H57.01C56.6836 15.8418 56.2036 16.7922 55.57 17.925C54.9364 19.0386 54.3316 19.9794 53.7556 20.7474C53.1796 21.5154 52.498 22.2162 51.7108 22.8498C50.9236 23.4642 50.1748 23.7714 49.4644 23.7714C46.6228 23.7714 45.202 22.1778 45.202 18.9906C45.202 17.5122 45.634 16.0338 46.498 14.5554C47.6884 12.501 49.1572 11.4738 50.9044 11.4738C52.1332 11.4738 52.7476 12.1458 52.7476 13.4898C52.7476 14.4882 52.3636 15.525 51.5956 16.6002C50.5204 18.0594 49.2628 18.7986 47.8228 18.8178C47.6116 18.8178 47.4772 18.7218 47.4196 18.5298L47.3908 18.4146C48.3892 18.4146 49.3396 17.7618 50.242 16.4562C51.1636 15.1314 51.6244 14.0274 51.6244 13.1442C51.6244 12.549 51.394 12.2514 50.9332 12.2514C49.9156 12.2514 48.9652 13.1442 48.082 14.9298C47.3524 16.4466 46.9876 17.973 46.9876 19.509ZM55.8136 23.7138C55.276 23.7138 55.0072 23.301 55.0072 22.4754C55.0072 22.0338 55.5448 18.8178 56.62 12.8274C56.6968 12.4242 56.8696 12.2226 57.1384 12.2226C57.484 12.2226 57.7432 12.4722 57.916 12.9714C58.012 13.2402 58.06 13.5378 58.06 13.8642C58.06 14.1714 58.0216 14.5074 57.9448 14.8722L57.484 17.2338H57.628C59.2792 13.3938 60.796 11.4738 62.1784 11.4738C62.9464 11.4738 63.4552 11.8482 63.7048 12.597C63.8008 12.885 63.8488 13.221 63.8488 13.605C63.8488 13.9698 63.7432 14.373 63.532 14.8146C63.1672 15.5634 62.62 15.9378 61.8904 15.9378C61.7368 15.9378 61.612 15.8994 61.516 15.8226C61.4392 15.7458 61.3912 15.6402 61.372 15.5058C61.5256 15.5058 61.7272 15.2274 61.9768 14.6706C62.2264 14.0946 62.3704 13.5666 62.4088 13.0866C62.4472 12.6066 62.284 12.3282 61.9192 12.2514C61.2472 12.2514 60.4504 13.125 59.5288 14.8722C58.6072 16.6194 57.868 18.2898 57.3112 19.8834C56.7544 21.477 56.428 22.5138 56.332 22.9938C56.236 23.4738 56.0632 23.7138 55.8136 23.7138ZM71.8052 5.65621C72.4964 3.85141 72.842 2.62261 72.842 1.96981C72.842 1.31701 72.6788 0.971407 72.3524 0.933007C71.45 0.933007 70.5092 2.38261 69.53 5.28181C68.57 8.16181 67.8116 11.157 67.2548 14.2674C66.7172 17.3586 66.4484 19.5474 66.4484 20.8338C66.4484 23.0034 66.986 24.0882 68.0612 24.0882C68.0612 24.2226 67.9748 24.357 67.802 24.4914C67.6292 24.6258 67.4276 24.693 67.1972 24.693C65.6228 24.693 64.8356 23.2818 64.8356 20.4594C64.8356 19.4226 65.0276 17.8386 65.4116 15.7074C65.7956 13.557 66.2948 11.3106 66.9092 8.96821C67.5236 6.62581 68.3204 4.59061 69.2996 2.86261C70.2788 1.11541 71.2772 0.241806 72.2948 0.241806C73.1012 0.241806 73.5044 0.750606 73.5044 1.76821C73.5044 2.53621 73.2644 3.61141 72.7844 4.99381C71.8628 7.68181 70.538 10.3698 68.81 13.0578C68.3492 13.7682 67.9364 14.3442 67.5716 14.7858C67.4756 14.901 67.4276 14.8626 67.4276 14.6706C67.4084 14.3058 67.4948 13.989 67.6868 13.7202C69.2612 11.3586 70.634 8.67061 71.8052 5.65621ZM75.4 6.46261C75.8416 6.46261 76.0624 6.76021 76.0624 7.35541C76.0624 7.95061 75.7744 8.43061 75.1984 8.79541C74.9104 8.98741 74.6608 9.08341 74.4496 9.08341C74.1424 9.08341 73.96 8.98741 73.9024 8.79541L73.8736 8.70901C74.0464 8.70901 74.1712 8.52661 74.248 8.16181C74.3248 7.77781 74.44 7.40341 74.5936 7.03861C74.7664 6.65461 75.0352 6.46261 75.4 6.46261ZM73.5568 23.0226C74.056 23.0226 74.7568 22.3602 75.6592 21.0354C76.5616 19.7106 77.3392 18.3858 77.992 17.061L78.9712 15.0738H79.7488C79.6336 15.3042 79.48 15.621 79.288 16.0242C79.1152 16.4082 78.76 17.109 78.2224 18.1266C77.6848 19.125 77.1664 20.0082 76.6672 20.7762C76.1872 21.5442 75.64 22.245 75.0256 22.8786C74.4304 23.493 73.912 23.8002 73.4704 23.8002C72.0496 23.8002 71.3392 22.8786 71.3392 21.0354C71.3392 19.653 71.7328 17.4066 72.52 14.2962C72.5968 13.9698 72.6544 13.7202 72.6928 13.5474C72.7504 13.3746 72.808 13.1538 72.8656 12.885C72.9232 12.597 72.9808 12.3378 73.0384 12.1074C73.1344 11.7042 73.3072 11.5026 73.5568 11.5026C73.9024 11.5026 74.152 11.7522 74.3056 12.2514C74.3824 12.4818 74.4208 12.7602 74.4208 13.0866C74.4208 13.413 74.3824 13.7586 74.3056 14.1234C74.2288 14.469 74.104 14.9874 73.9312 15.6786C73.7584 16.3698 73.624 16.9362 73.528 17.3778C73.432 17.8194 73.3264 18.357 73.2112 18.9906C73 20.0466 72.8944 20.9874 72.8944 21.813C72.8944 22.6194 73.1152 23.0226 73.5568 23.0226ZM78.4957 23.7138C77.9581 23.7138 77.6893 23.301 77.6893 22.4754C77.6893 22.0338 78.2269 18.8178 79.3021 12.8274C79.3597 12.4242 79.5325 12.2226 79.8205 12.2226C80.1661 12.2226 80.4253 12.4722 80.5981 12.9714C80.6941 13.2402 80.7421 13.5378 80.7421 13.8642C80.7421 14.1714 80.7037 14.5074 80.6269 14.8722L80.1661 17.1762H80.3389C82.0669 13.2978 83.7181 11.3586 85.2925 11.3586C85.9069 11.3586 86.3773 11.5506 86.7037 11.9346C87.0301 12.2994 87.1933 12.8082 87.1933 13.461C87.1933 14.1138 86.9341 15.525 86.4157 17.6946C85.8973 19.8642 85.6381 21.3714 85.6381 22.2162C85.6381 23.4642 85.8685 24.0882 86.3293 24.0882C86.3293 24.2226 86.2429 24.357 86.0701 24.4914C85.8973 24.6258 85.6957 24.693 85.4653 24.693C84.3517 24.693 83.7949 23.8194 83.7949 22.0722C83.7949 20.997 84.0829 19.3746 84.6589 17.205C85.2541 15.0162 85.5517 13.6242 85.5517 13.029C85.5517 12.4146 85.3117 12.1074 84.8317 12.1074C84.1405 12.1074 83.3053 13.0098 82.3261 14.8146C81.3661 16.6194 80.5885 18.3474 79.9933 19.9986C79.4173 21.6306 79.0813 22.6578 78.9853 23.0802C78.9085 23.5026 78.7453 23.7138 78.4957 23.7138ZM91.3548 19.509C91.3548 21.8322 92.1804 22.9938 93.8316 22.9938C94.446 22.9938 95.0892 22.725 95.7612 22.1874C96.4524 21.6306 97.0764 20.9682 97.6332 20.2002C98.862 18.4338 99.726 16.9938 100.225 15.8802L100.6 15.0738H101.377C101.051 15.8418 100.571 16.7922 99.9372 17.925C99.3036 19.0386 98.6988 19.9794 98.1228 20.7474C97.5468 21.5154 96.8652 22.2162 96.078 22.8498C95.2908 23.4642 94.542 23.7714 93.8316 23.7714C90.99 23.7714 89.5692 22.1778 89.5692 18.9906C89.5692 17.5122 90.0012 16.0338 90.8652 14.5554C92.0556 12.501 93.5244 11.4738 95.2716 11.4738C96.5004 11.4738 97.1148 12.1458 97.1148 13.4898C97.1148 14.4882 96.7308 15.525 95.9628 16.6002C94.8876 18.0594 93.63 18.7986 92.19 18.8178C91.9788 18.8178 91.8444 18.7218 91.7868 18.5298L91.758 18.4146C92.7564 18.4146 93.7068 17.7618 94.6092 16.4562C95.5308 15.1314 95.9916 14.0274 95.9916 13.1442C95.9916 12.549 95.7612 12.2514 95.3004 12.2514C94.2828 12.2514 93.3324 13.1442 92.4492 14.9298C91.7196 16.4466 91.3548 17.973 91.3548 19.509ZM132.676 0.645006C132.791 0.299406 133.012 0.126606 133.338 0.126606C133.684 0.126606 133.962 0.270606 134.173 0.558607C134.404 0.827407 134.519 1.18261 134.519 1.62421C134.519 2.06581 134.394 2.48821 134.144 2.89141C133.914 3.27541 133.626 3.60181 133.28 3.87061C132.954 4.13941 132.493 4.39861 131.898 4.64821C131.072 5.01301 129.844 5.42581 128.212 5.88661C127.751 7.57621 127.405 9.62101 127.175 12.021C126.964 14.4018 126.743 16.389 126.512 17.9826C126.282 19.5762 126.023 21.0642 125.735 22.4466C125.447 23.8098 125.024 25.1442 124.468 26.4498C123.911 27.7746 123.258 28.8978 122.509 29.8194C121.76 30.741 120.791 31.4802 119.6 32.037C118.429 32.5938 117.085 32.8722 115.568 32.8722C112.554 32.8722 110.404 31.8066 109.117 29.6754C108.445 28.5618 108.109 27.3426 108.109 26.0178C108.109 25.3842 108.186 24.7314 108.34 24.0594C108.8 22.101 109.76 20.6706 111.22 19.7682C112.084 19.2306 113.024 18.9618 114.042 18.9618C116.116 18.9618 117.536 19.7778 118.304 21.4098C118.612 22.101 118.765 22.7826 118.765 23.4546C118.765 24.1074 118.66 24.7506 118.448 25.3842C117.93 26.805 117.085 27.5154 115.914 27.5154C115.588 27.5154 115.319 27.333 115.108 26.9682C115.895 26.9682 116.519 26.4114 116.98 25.2978C117.268 24.6066 117.412 23.9538 117.412 23.3394C117.412 22.725 117.325 22.1586 117.152 21.6402C116.653 20.2194 115.626 19.509 114.071 19.509C112.247 19.509 110.816 20.3538 109.78 22.0434C109.069 23.2146 108.714 24.4626 108.714 25.7874C108.714 26.2482 108.762 26.709 108.858 27.1698C109.204 29.205 110.231 30.6354 111.94 31.461C112.842 31.9026 113.984 32.1234 115.367 32.1234C116.749 32.1234 118.026 31.6722 119.197 30.7698C120.368 29.8674 121.271 28.725 121.904 27.3426C122.557 25.9794 123.124 24.3282 123.604 22.389C124.103 20.4306 124.468 18.5682 124.698 16.8018C125.37 11.9826 126.032 8.48821 126.685 6.31861C123.172 7.33621 120.781 8.46901 119.514 9.71701C118.996 10.2546 118.554 10.9362 118.189 11.7618C117.824 12.5682 117.642 13.4706 117.642 14.469C117.642 15.4674 117.892 16.3122 118.391 17.0034C118.89 17.6946 119.524 18.0402 120.292 18.0402C120.292 18.1938 120.215 18.3378 120.061 18.4722C119.908 18.6066 119.716 18.6738 119.485 18.6738C118.544 18.6738 117.767 18.2706 117.152 17.4642C116.557 16.6578 116.26 15.765 116.26 14.7858C116.26 13.7874 116.375 12.9426 116.605 12.2514C116.855 11.5602 117.152 10.965 117.498 10.4658C117.863 9.94741 118.343 9.45781 118.938 8.99701C119.552 8.53621 120.128 8.15221 120.666 7.84501C121.204 7.53781 121.885 7.22101 122.711 6.89461C123.94 6.43381 125.351 5.97301 126.944 5.51221C127.847 2.99701 129.143 1.73941 130.832 1.73941C130.967 1.73941 131.082 1.78741 131.178 1.88341C131.293 1.96021 131.38 2.07541 131.437 2.22901C130.112 2.22901 129.124 3.16981 128.471 5.05141C130.16 4.55221 131.428 4.06261 132.272 3.58261C133.136 3.10261 133.568 2.48821 133.568 1.73941C133.568 1.41301 133.482 1.15381 133.309 0.961807C133.136 0.750607 132.925 0.645006 132.676 0.645006ZM132.312 19.509C132.312 21.8322 133.137 22.9938 134.789 22.9938C135.403 22.9938 136.046 22.725 136.718 22.1874C137.409 21.6306 138.033 20.9682 138.59 20.2002C139.819 18.4338 140.683 16.9938 141.182 15.8802L141.557 15.0738H142.334C142.008 15.8418 141.528 16.7922 140.894 17.925C140.261 19.0386 139.656 19.9794 139.08 20.7474C138.504 21.5154 137.822 22.2162 137.035 22.8498C136.248 23.4642 135.499 23.7714 134.789 23.7714C131.947 23.7714 130.526 22.1778 130.526 18.9906C130.526 17.5122 130.958 16.0338 131.822 14.5554C133.013 12.501 134.481 11.4738 136.229 11.4738C137.457 11.4738 138.072 12.1458 138.072 13.4898C138.072 14.4882 137.688 15.525 136.92 16.6002C135.845 18.0594 134.587 18.7986 133.147 18.8178C132.936 18.8178 132.801 18.7218 132.744 18.5298L132.715 18.4146C133.713 18.4146 134.664 17.7618 135.566 16.4562C136.488 15.1314 136.949 14.0274 136.949 13.1442C136.949 12.549 136.718 12.2514 136.257 12.2514C135.24 12.2514 134.289 13.1442 133.406 14.9298C132.677 16.4466 132.312 17.973 132.312 19.509ZM149.519 22.9362C150.229 22.9362 150.911 22.485 151.563 21.5826C152.735 19.9314 153.522 17.7042 153.925 14.901C153.311 14.5938 152.898 14.181 152.687 13.6626C152.495 13.1442 152.399 12.741 152.399 12.453C152.399 11.4546 152.725 10.9554 153.378 10.9554C154.184 10.9554 154.587 11.8482 154.587 13.6338C154.587 13.8258 154.587 14.0274 154.587 14.2386C154.875 14.3346 155.231 14.3826 155.653 14.3826C156.095 14.3826 156.488 14.2002 156.834 13.8354C157.179 13.4706 157.352 13.1346 157.352 12.8274C157.352 12.7506 157.391 12.7026 157.467 12.6834C157.563 12.645 157.659 12.645 157.755 12.6834C157.851 12.7218 157.899 12.7794 157.899 12.8562C157.899 13.413 157.659 13.941 157.179 14.4402C156.719 14.9394 156.095 15.189 155.307 15.189C155.019 15.189 154.76 15.1602 154.53 15.1026C154.184 18.1362 153.291 20.5458 151.851 22.3314C151.103 23.253 150.306 23.7138 149.461 23.7138C148.117 23.7138 147.215 23.0034 146.754 21.5826C145.621 23.0034 144.536 23.7138 143.499 23.7138C142.04 23.7138 141.138 23.2146 140.792 22.2162C140.6 21.6786 140.504 21.1026 140.504 20.4882C140.504 19.8738 140.571 19.1922 140.706 18.4434C140.994 17.0226 141.551 14.901 142.376 12.0786C142.491 11.6754 142.674 11.4738 142.923 11.4738C143.269 11.4738 143.519 11.7138 143.672 12.1938C143.749 12.4242 143.787 12.7026 143.787 13.029C143.787 13.3362 143.739 13.6626 143.643 14.0082C143.547 14.3538 143.432 14.7762 143.298 15.2754C143.163 15.7746 143.048 16.197 142.952 16.5426C142.856 16.8882 142.741 17.3106 142.607 17.8098C142.491 18.309 142.395 18.741 142.319 19.1058C142.261 19.4706 142.203 19.8642 142.146 20.2866C142.107 20.709 142.107 21.0738 142.146 21.381C142.184 21.669 142.251 21.9378 142.347 22.1874C142.539 22.6866 142.943 22.9362 143.557 22.9362C144.479 22.9362 145.467 22.1778 146.523 20.661C146.447 20.2002 146.408 19.7298 146.408 19.2498C146.408 17.9634 146.648 16.5906 147.128 15.1314C147.8 13.1346 148.482 12.1362 149.173 12.1362C149.73 12.1362 150.008 12.5682 150.008 13.4322C150.008 13.7778 149.96 14.181 149.864 14.6418C149.576 16.2738 148.943 17.9634 147.963 19.7106C148.136 21.861 148.655 22.9362 149.519 22.9362ZM147.935 18.2418C148.338 17.4162 148.674 16.6002 148.943 15.7938C149.211 14.9874 149.355 14.4498 149.375 14.181C149.413 13.893 149.432 13.653 149.432 13.461C149.432 13.269 149.355 13.1538 149.202 13.1154C148.875 13.1154 148.587 13.653 148.338 14.7282C148.088 15.7842 147.954 16.9554 147.935 18.2418ZM158.784 19.509C158.784 21.8322 159.61 22.9938 161.261 22.9938C161.876 22.9938 162.519 22.725 163.191 22.1874C163.882 21.6306 164.506 20.9682 165.063 20.2002C166.292 18.4338 167.156 16.9938 167.655 15.8802L168.029 15.0738H168.807C168.48 15.8418 168 16.7922 167.367 17.925C166.733 19.0386 166.128 19.9794 165.552 20.7474C164.976 21.5154 164.295 22.2162 163.508 22.8498C162.72 23.4642 161.972 23.7714 161.261 23.7714C158.42 23.7714 156.999 22.1778 156.999 18.9906C156.999 17.5122 157.431 16.0338 158.295 14.5554C159.485 12.501 160.954 11.4738 162.701 11.4738C163.93 11.4738 164.544 12.1458 164.544 13.4898C164.544 14.4882 164.16 15.525 163.392 16.6002C162.317 18.0594 161.06 18.7986 159.62 18.8178C159.408 18.8178 159.274 18.7218 159.216 18.5298L159.188 18.4146C160.186 18.4146 161.136 17.7618 162.039 16.4562C162.96 15.1314 163.421 14.0274 163.421 13.1442C163.421 12.549 163.191 12.2514 162.73 12.2514C161.712 12.2514 160.762 13.1442 159.879 14.9298C159.149 16.4466 158.784 17.973 158.784 19.509ZM174.321 5.65621C175.012 3.85141 175.358 2.62261 175.358 1.96981C175.358 1.31701 175.194 0.971407 174.868 0.933007C173.966 0.933007 173.025 2.38261 172.046 5.28181C171.086 8.16181 170.327 11.157 169.77 14.2674C169.233 17.3586 168.964 19.5474 168.964 20.8338C168.964 23.0034 169.502 24.0882 170.577 24.0882C170.577 24.2226 170.49 24.357 170.318 24.4914C170.145 24.6258 169.943 24.693 169.713 24.693C168.138 24.693 167.351 23.2818 167.351 20.4594C167.351 19.4226 167.543 17.8386 167.927 15.7074C168.311 13.557 168.81 11.3106 169.425 8.96821C170.039 6.62581 170.836 4.59061 171.815 2.86261C172.794 1.11541 173.793 0.241806 174.81 0.241806C175.617 0.241806 176.02 0.750606 176.02 1.76821C176.02 2.53621 175.78 3.61141 175.3 4.99381C174.378 7.68181 173.054 10.3698 171.326 13.0578C170.865 13.7682 170.452 14.3442 170.087 14.7858C169.991 14.901 169.943 14.8626 169.943 14.6706C169.924 14.3058 170.01 13.989 170.202 13.7202C171.777 11.3586 173.15 8.67061 174.321 5.65621ZM174.431 23.7138C173.893 23.7138 173.624 23.301 173.624 22.4754C173.624 22.0338 174.162 18.8178 175.237 12.8274C175.314 12.4242 175.487 12.2226 175.756 12.2226C176.101 12.2226 176.36 12.4722 176.533 12.9714C176.629 13.2402 176.677 13.5378 176.677 13.8642C176.677 14.1714 176.639 14.5074 176.562 14.8722L176.101 17.2338H176.245C177.896 13.3938 179.413 11.4738 180.796 11.4738C181.564 11.4738 182.072 11.8482 182.322 12.597C182.418 12.885 182.466 13.221 182.466 13.605C182.466 13.9698 182.36 14.373 182.149 14.8146C181.784 15.5634 181.237 15.9378 180.508 15.9378C180.354 15.9378 180.229 15.8994 180.133 15.8226C180.056 15.7458 180.008 15.6402 179.989 15.5058C180.143 15.5058 180.344 15.2274 180.594 14.6706C180.844 14.0946 180.988 13.5666 181.026 13.0866C181.064 12.6066 180.901 12.3282 180.536 12.2514C179.864 12.2514 179.068 13.125 178.146 14.8722C177.224 16.6194 176.485 18.2898 175.928 19.8834C175.372 21.477 175.045 22.5138 174.949 22.9938C174.853 23.4738 174.68 23.7138 174.431 23.7138ZM182.502 35.205C180.678 35.205 179.766 34.2738 179.766 32.4114C179.766 31.317 180.179 30.1362 181.005 28.869C182.195 27.0066 183.789 25.7778 185.786 25.1826C186.496 24.9714 187.235 24.8658 188.003 24.8658C188.138 24.8658 188.205 25.0002 188.205 25.269C188.205 25.5378 188.138 25.6722 188.003 25.6722C185.738 25.6722 183.837 26.565 182.301 28.3506C181.168 29.6946 180.602 30.9906 180.602 32.2386C180.602 33.4866 181.082 34.2066 182.042 34.3986L182.502 34.4274C184.096 34.4274 185.373 33.7554 186.333 32.4114C187.005 31.4514 187.504 30.4722 187.83 29.4738C188.176 28.4946 188.426 27.7074 188.579 27.1122C188.752 26.517 188.944 25.7298 189.155 24.7506C189.366 23.7906 189.53 22.9746 189.645 22.3026C189.779 21.6306 189.962 20.6706 190.192 19.4226C190.442 18.1554 190.634 17.157 190.768 16.4274H190.595C188.272 21.285 186.362 23.7138 184.864 23.7138C183.578 23.7138 182.934 22.8786 182.934 21.2082C182.934 19.9986 183.453 17.589 184.49 13.9794C184.72 13.1538 184.893 12.5394 185.008 12.1362C185.123 11.7138 185.306 11.5026 185.555 11.5026C185.901 11.5026 186.15 11.7522 186.304 12.2514C186.381 12.4626 186.419 12.7314 186.419 13.0578C186.419 13.365 186.371 13.7106 186.275 14.0946C186.179 14.4594 185.978 15.1698 185.67 16.2258C184.845 19.0674 184.432 20.9778 184.432 21.957C184.432 22.5906 184.624 22.9074 185.008 22.9074C185.469 22.9074 186.035 22.4754 186.707 21.6114C187.398 20.7474 188.07 19.6914 188.723 18.4434C189.914 16.1778 190.883 14.0658 191.632 12.1074C191.786 11.7042 191.978 11.5026 192.208 11.5026C192.534 11.5026 192.774 11.7522 192.928 12.2514C193.005 12.5202 193.043 12.8178 193.043 13.1442C193.043 13.4706 192.88 14.4114 192.554 15.9666C192.246 17.5218 191.93 19.0098 191.603 20.4306C191.296 21.8514 190.883 23.5218 190.365 25.4418C189.866 27.3618 189.386 28.7922 188.925 29.733C188.483 30.6738 187.936 31.6338 187.283 32.613C186.65 33.5922 185.939 34.2642 185.152 34.629C184.365 35.013 183.482 35.205 182.502 35.205Z" fill="url(#paint2_linear)"/>
</g>
<defs>
<linearGradient id="paint0_linear" x1="7.10161" y1="0" x2="7.10161" y2="27.4511" gradientUnits="userSpaceOnUse">
<stop offset="0.50789" stop-color="#3E3D3D" stop-opacity="0"/>
<stop offset="0.53125" stop-color="#DCDCDC" stop-opacity="0.818083"/>
<stop offset="0.651042" stop-color="white"/>
</linearGradient>
<linearGradient id="paint1_linear" x1="7.10161" y1="0" x2="7.10161" y2="27.4511" gradientUnits="userSpaceOnUse">
<stop offset="0.078125" stop-color="#A89C9C"/>
<stop offset="0.578125" stop-color="white" stop-opacity="0"/>
</linearGradient>
<linearGradient id="paint2_linear" x1="98" y1="10.7138" x2="98" y2="19.2642" gradientUnits="userSpaceOnUse">
<stop offset="0.0416667" stop-color="#8F949E"/>
<stop offset="1" stop-color="white" stop-opacity="0"/>
</linearGradient>
</defs>
</svg>
